<?xml version="1.0" encoding="utf-8"?>
<!-- Generator: Adobe Illustrator 15.0.0, SVG Export Plug-In . SVG Version: 6.00 Build 0)  -->
<!DOCTYPE svg PUBLIC "-//W3C//DTD SVG 1.1//EN" "http://www.w3.org/Graphics/SVG/1.1/DTD/svg11.dtd">
<svg version="1.1" id="icons" xmlns="http://www.w3.org/2000/svg" xmlns:xlink="http://www.w3.org/1999/xlink" x="0px" y="0px"
	 width="45.132px" height="34.022px" viewBox="0 0 45.132 34.022" enable-background="new 0 0 45.132 34.022" xml:space="preserve">
<g>
	<path fill="#505050" d="M45.132,8.347V7.405c0-0.413-0.186-0.783-0.569-0.932L28.128,0.068c-0.232-0.091-0.476-0.091-0.708,0
		L10.86,6.473c-0.384,0.149-0.729,0.52-0.729,0.932v5.563H1.267c-0.552,0-1,0.448-1,1s0.448,1,1,1h9.539
		c-0.279,0-0.674,0.315-0.674,0.67v1.33H6.757c-0.553,0-1,0.448-1,1s0.447,1,1,1h4.049c-0.279,1-0.674,0.89-0.674,1.245v1.755h-6.12
		c-0.552,0-1,0.448-1,1s0.448,1,1,1h6.794c-0.279,0-0.674,0.464-0.674,0.819v1.83c0,0.413,0.354,0.783,0.737,0.932l16.518,6.404
		c0.116,0.045,0.265,0.068,0.388,0.068s0.258-0.022,0.374-0.068l16.408-6.404c0.384-0.149,0.575-0.52,0.575-0.932V8.35
		C45.132,8.349,45.132,8.348,45.132,8.347z M27.799,13.651l-6.521-2.536L35.48,5.592c0.188-0.073,0.327-0.208,0.437-0.362
		l6.768,2.632L27.799,13.651z M27.799,2.073l5.606,2.18L18.52,10.042l-5.605-2.18L27.799,2.073z M11.856,23.968h3.135
		c0.552,0,1-0.448,1-1s-0.448-1-1-1h-2.859v-1.755c0-0.355,0.004-0.245-0.275-1.245h5.879c0.553,0,1-0.448,1-1s-0.447-1-1-1h-5.604
		v-1.33c0-0.355,0.004-0.67-0.275-0.67h2.219c0.553,0,1-0.448,1-1s-0.447-1-1-1h-1.943V9.782l15,5.626V31.56l-15-5.626v-1.146
		C12.132,24.433,12.136,23.968,11.856,23.968z M29.132,31.56V15.408l14-5.626v16.151L29.132,31.56z"/>
	<path fill="#505050" d="M41.522,23.968h-1.83c-0.521,0-0.938,0-0.982,1h-1.762c-0.553,0-1,0.448-1,1s0.447,1,1,1h1.83
		c0.521,0,0.938-1,0.982-1h1.762c0.553,0,1-0.448,1-1S42.075,23.968,41.522,23.968z"/>
</g>
</svg>
