<?xml version="1.0" encoding="utf-8"?>
<!-- Generator: Adobe Illustrator 15.0.0, SVG Export Plug-In . SVG Version: 6.00 Build 0)  -->
<!DOCTYPE svg PUBLIC "-//W3C//DTD SVG 1.1//EN" "http://www.w3.org/Graphics/SVG/1.1/DTD/svg11.dtd">
<svg version="1.1" id="icons" xmlns="http://www.w3.org/2000/svg" xmlns:xlink="http://www.w3.org/1999/xlink" x="0px" y="0px"
	 width="44.126px" height="42.238px" viewBox="0 0 44.126 42.238" enable-background="new 0 0 44.126 42.238" xml:space="preserve">
<g>
	<path fill="#505050" d="M23.966,28.825h-3.833c-1.608,0-2.916-1.308-2.916-2.916v-0.958c0-0.552,0.448-1,1-1s1,0.448,1,1v0.958
		c0,0.505,0.411,0.916,0.916,0.916h3.833c0.504,0,0.916-0.411,0.916-0.916v-2.451c0-0.378-0.232-0.715-0.581-0.853l-4.977-1.029
		c-0.038-0.008-0.076-0.018-0.113-0.031c-1.192-0.397-1.994-1.508-1.994-2.766v-2.451c0-1.607,1.308-2.916,2.916-2.916h3.833
		c1.607,0,2.916,1.308,2.916,2.916v1.916c0,0.552-0.448,1-1,1c-0.553,0-1-0.448-1-1v-1.916c0-0.505-0.412-0.916-0.916-0.916h-3.833
		c-0.505,0-0.916,0.411-0.916,0.916v2.451c0,0.379,0.231,0.715,0.581,0.852l4.977,1.029c0.039,0.008,0.076,0.019,0.114,0.031
		c1.192,0.398,1.993,1.51,1.993,2.766v2.451C26.882,27.517,25.573,28.825,23.966,28.825z"/>
	<path fill="#505050" d="M22.049,15.413c-0.552,0-1-0.448-1-1v-3.833c0-0.552,0.448-1,1-1s1,0.448,1,1v3.833
		C23.049,14.965,22.601,15.413,22.049,15.413z"/>
	<path fill="#505050" d="M22.049,32.657c-0.552,0-1-0.448-1-1v-3.832c0-0.552,0.448-1,1-1s1,0.448,1,1v3.832
		C23.049,32.209,22.601,32.657,22.049,32.657z"/>
	<path fill="#505050" d="M22.049,42.238c-11.645,0-21.118-9.474-21.118-21.119c0-2.661,0.506-5.274,1.506-7.778l-2.064-1.667
		c-0.284-0.229-0.421-0.595-0.356-0.955s0.319-0.655,0.665-0.771l12.666-4.268c0.32-0.108,0.674-0.046,0.938,0.162
		c0.265,0.209,0.407,0.538,0.378,0.874L13.465,20.25c-0.032,0.369-0.267,0.689-0.607,0.833c-0.34,0.143-0.733,0.088-1.021-0.146
		L10.319,19.7c-0.505,1.321-0.769,2.72-0.769,4.106c0,3.598,1.634,6.928,4.484,9.134c0.437,0.338,0.517,0.966,0.179,1.403
		c-0.339,0.437-0.967,0.516-1.403,0.178c-3.343-2.588-5.26-6.494-5.26-10.715c0-2.11,0.518-4.24,1.497-6.161
		c0.138-0.27,0.389-0.462,0.686-0.524c0.294-0.063,0.604,0.012,0.838,0.204l1.067,0.871l0.897-10.13l-9.49,3.197l1.232,0.995
		c0.352,0.284,0.469,0.768,0.287,1.181C3.48,15.9,2.931,18.485,2.931,21.119c0,10.542,8.576,19.119,19.118,19.119
		c0.552,0,1,0.448,1,1S22.601,42.238,22.049,42.238z"/>
	<path fill="#505050" d="M30.46,36.609c-0.222,0-0.44-0.074-0.619-0.214c-0.266-0.209-0.407-0.538-0.377-0.874l1.197-13.532
		c0.033-0.369,0.267-0.689,0.607-0.833c0.342-0.144,0.734-0.088,1.021,0.146l1.516,1.236c0.506-1.324,0.771-2.723,0.771-4.106
		c0-3.599-1.635-6.928-4.485-9.133c-0.437-0.338-0.517-0.966-0.179-1.403c0.339-0.437,0.968-0.516,1.403-0.179
		c3.344,2.587,5.261,6.493,5.261,10.715c0,2.104-0.519,4.234-1.498,6.161c-0.137,0.27-0.389,0.462-0.685,0.525
		c-0.294,0.062-0.604-0.012-0.838-0.204l-1.068-0.87l-0.896,10.129l9.489-3.197l-1.231-0.995c-0.352-0.284-0.47-0.768-0.287-1.182
		c1.084-2.46,1.634-5.044,1.634-7.68C41.195,10.577,32.619,2,22.077,2c-0.553,0-1-0.448-1-1s0.447-1,1-1
		c11.645,0,21.118,9.474,21.118,21.119c0,2.663-0.507,5.275-1.507,7.777l2.065,1.667c0.284,0.229,0.421,0.595,0.356,0.955
		c-0.064,0.359-0.319,0.655-0.665,0.771l-12.667,4.268C30.675,36.592,30.567,36.609,30.46,36.609z"/>
</g>
</svg>
