<?xml version="1.0" encoding="utf-8"?>
<!-- Generator: Adobe Illustrator 15.0.0, SVG Export Plug-In . SVG Version: 6.00 Build 0)  -->
<!DOCTYPE svg PUBLIC "-//W3C//DTD SVG 1.1//EN" "http://www.w3.org/Graphics/SVG/1.1/DTD/svg11.dtd">
<svg version="1.1" id="icons" xmlns="http://www.w3.org/2000/svg" xmlns:xlink="http://www.w3.org/1999/xlink" x="0px" y="0px"
	 width="42px" height="45px" viewBox="0 0 42 45" enable-background="new 0 0 42 45" xml:space="preserve">
<g>
	<path fill="#505050" d="M5.662,7.807c0.743-0.166,1.503-0.195,2.257-0.195C11.49,7.612,14.376,9,14.99,12h-2.435
		c-0.394,0-0.751,0.176-0.912,0.536s-0.097,0.752,0.165,1.047l7.11,7.986c0.189,0.213,0.461,0.329,0.747,0.329
		c0.285,0,0.558-0.125,0.747-0.339l7.111-8.002c0.262-0.294,0.326-0.661,0.165-1.02S27.171,12,26.777,12h-2.593
		c-0.443-6-4.774-9.377-11.526-9.377c-2.269,0-5.012,0.371-7.715,1.157C4.516,3.904,4,4.268,4,4.713v2.118
		c0,0.303,0.36,0.59,0.597,0.78C4.834,7.8,5.367,7.873,5.662,7.807z M6,5.472c3-0.6,4.556-0.904,6.436-0.904
		c5.989,0,9.675,3.166,9.675,8.377c0,0.552,0.559,1.055,1.111,1.055h1.328l-4.885,5.495L14.782,14h1.329c0.553,0,1-0.502,1-1.055
		c0-4.112-4.26-7.361-9.415-7.361C7.206,5.584,7,5.587,6,5.646V5.472z"/>
	<path fill="#505050" d="M33.895,23.332C33.725,22.993,33.379,23,33,23H4.556c-0.379,0-0.725-0.007-0.895,0.332l-3.556,7
		C0.036,30.471,0,30.513,0,30.668v0.889C0,32.11,0.448,33,1,33h3v11.002C4,44.554,4.003,45,4.556,45H33c0.553,0,1-0.446,1-0.998V33
		h2.556C37.108,33,38,32.11,38,31.558v-0.889c0-0.155-0.258-0.198-0.328-0.336L33.895,23.332z M22,43h-6v-2h6V43z M32,43h-8v-3.442
		C24,39.005,23.775,39,23.223,39h-8C14.67,39,14,39.005,14,39.558V43H6V33h26V43z M2.173,31l3-6h27.208l3,6H2.173z"/>
	<path fill="#505050" d="M7.222,41H9c0.162,0,0.309-0.047,0.444-0.116C9.58,40.953,9.727,41,9.889,41h1.777c0.553,0,1-0.448,1-1
		s-0.447-1-1-1H9.889c-0.162,0-0.309,0.047-0.444,0.116C9.309,39.047,9.162,39,9,39H7.222c-0.552,0-1,0.448-1,1S6.67,41,7.222,41z"
		/>
	<path fill="#505050" d="M33,20.113c0.553,0,1-0.448,1-1v-3.556c0-0.552-0.447-1-1-1s-1,0.448-1,1v3.556
		C32,19.666,32.447,20.113,33,20.113z"/>
	<path fill="#505050" d="M34.723,20.575c0.157,0.091,0.329,0.134,0.499,0.134c0.346,0,0.682-0.179,0.867-0.5l1.777-3.08
		c0.276-0.479,0.112-1.09-0.366-1.366c-0.478-0.276-1.091-0.112-1.366,0.366l-1.777,3.08C34.08,19.687,34.244,20.298,34.723,20.575z
		"/>
	<path fill="#505050" d="M29.911,20.208c0.186,0.321,0.521,0.5,0.867,0.5c0.17,0,0.342-0.043,0.499-0.134
		c0.479-0.276,0.643-0.888,0.366-1.366l-1.777-3.08c-0.277-0.479-0.89-0.643-1.366-0.366c-0.479,0.276-0.643,0.888-0.366,1.366
		L29.911,20.208z"/>
	<path fill="#505050" d="M35.983,21.835c0.186,0.321,0.521,0.5,0.867,0.5c0.17,0,0.342-0.043,0.499-0.134l3.078-1.778
		c0.479-0.276,0.643-0.888,0.366-1.366c-0.276-0.479-0.89-0.643-1.366-0.366L36.35,20.47C35.871,20.746,35.707,21.357,35.983,21.835
		z"/>
	<path fill="#505050" d="M41,23h-3.556c-0.553,0-1,0.448-1,1s0.447,1,1,1H41c0.553,0,1-0.448,1-1S41.553,23,41,23z"/>
</g>
</svg>
