<svg xmlns="http://www.w3.org/2000/svg" xmlns:xlink="http://www.w3.org/1999/xlink" viewBox="0 0 312.418 86.065">
  <defs>
    <style>
      .cls-1 {
        fill: #fff;
      }

      .cls-2 {
        fill: #ff9d00;
      }

      .cls-3 {
        fill: none;
      }

      .cls-4 {
        filter: url(#Path_32);
      }

      .cls-5 {
        filter: url(#Path_31);
      }

      .cls-6 {
        filter: url(#Path_30);
      }

      .cls-7 {
        filter: url(#Path_29);
      }

      .cls-8 {
        filter: url(#Path_28);
      }

      .cls-9 {
        filter: url(#Path_27);
      }

      .cls-10 {
        filter: url(#Path_26);
      }

      .cls-11 {
        filter: url(#Path_25);
      }

      .cls-12 {
        filter: url(#Path_24);
      }

      .cls-13 {
        filter: url(#Path_23);
      }

      .cls-14 {
        filter: url(#Path_22);
      }

      .cls-15 {
        filter: url(#Path_21);
      }

      .cls-16 {
        filter: url(#Path_20);
      }

      .cls-17 {
        filter: url(#Path_19);
      }

      .cls-18 {
        filter: url(#Path_18);
      }

      .cls-19 {
        filter: url(#Path_17);
      }

      .cls-20 {
        filter: url(#Path_16);
      }

      .cls-21 {
        filter: url(#Path_15);
      }

      .cls-22 {
        filter: url(#Path_14);
      }

      .cls-23 {
        filter: url(#Path_13);
      }

      .cls-24 {
        filter: url(#Path_12);
      }

      .cls-25 {
        filter: url(#Path_11);
      }

      .cls-26 {
        filter: url(#Path_10);
      }

      .cls-27 {
        filter: url(#Path_9);
      }

      .cls-28 {
        filter: url(#Path_8);
      }

      .cls-29 {
        filter: url(#Path_7);
      }

      .cls-30 {
        filter: url(#Path_6);
      }

      .cls-31 {
        filter: url(#Path_5);
      }

      .cls-32 {
        filter: url(#Path_4);
      }

      .cls-33 {
        filter: url(#Path_3);
      }

      .cls-34 {
        filter: url(#Path_2);
      }

      .cls-35 {
        filter: url(#Path_1);
      }
    </style>
    <filter id="Path_1" x="81.551" y="9.423" width="48.691" height="54.501" filterUnits="userSpaceOnUse">
      <feOffset dy="3" input="SourceAlpha"/>
      <feGaussianBlur stdDeviation="3" result="blur"/>
      <feFlood flood-opacity="0.251"/>
      <feComposite operator="in" in2="blur"/>
      <feComposite in="SourceGraphic"/>
    </filter>
    <filter id="Path_2" x="113.449" y="19.288" width="31.263" height="44.636" filterUnits="userSpaceOnUse">
      <feOffset dy="3" input="SourceAlpha"/>
      <feGaussianBlur stdDeviation="3" result="blur-2"/>
      <feFlood flood-opacity="0.251"/>
      <feComposite operator="in" in2="blur-2"/>
      <feComposite in="SourceGraphic"/>
    </filter>
    <filter id="Path_3" x="126.712" y="18.959" width="45.184" height="45.184" filterUnits="userSpaceOnUse">
      <feOffset dy="3" input="SourceAlpha"/>
      <feGaussianBlur stdDeviation="3" result="blur-3"/>
      <feFlood flood-opacity="0.251"/>
      <feComposite operator="in" in2="blur-3"/>
      <feComposite in="SourceGraphic"/>
    </filter>
    <filter id="Path_4" x="157.622" y="18.959" width="45.184" height="45.184" filterUnits="userSpaceOnUse">
      <feOffset dy="3" input="SourceAlpha"/>
      <feGaussianBlur stdDeviation="3" result="blur-4"/>
      <feFlood flood-opacity="0.251"/>
      <feComposite operator="in" in2="blur-4"/>
      <feComposite in="SourceGraphic"/>
    </filter>
    <filter id="Path_5" x="190.615" y="8.765" width="27.865" height="55.049" filterUnits="userSpaceOnUse">
      <feOffset dy="3" input="SourceAlpha"/>
      <feGaussianBlur stdDeviation="3" result="blur-5"/>
      <feFlood flood-opacity="0.251"/>
      <feComposite operator="in" in2="blur-5"/>
      <feComposite in="SourceGraphic"/>
    </filter>
    <filter id="Path_6" x="201.686" y="12.273" width="31.373" height="51.432" filterUnits="userSpaceOnUse">
      <feOffset dy="3" input="SourceAlpha"/>
      <feGaussianBlur stdDeviation="3" result="blur-6"/>
      <feFlood flood-opacity="0.251"/>
      <feComposite operator="in" in2="blur-6"/>
      <feComposite in="SourceGraphic"/>
    </filter>
    <filter id="Path_7" x="216.922" y="8.765" width="27.865" height="55.049" filterUnits="userSpaceOnUse">
      <feOffset dy="3" input="SourceAlpha"/>
      <feGaussianBlur stdDeviation="3" result="blur-7"/>
      <feFlood flood-opacity="0.251"/>
      <feComposite operator="in" in2="blur-7"/>
      <feComposite in="SourceGraphic"/>
    </filter>
    <filter id="Path_8" x="228.87" y="18.85" width="55.707" height="44.965" filterUnits="userSpaceOnUse">
      <feOffset dy="3" input="SourceAlpha"/>
      <feGaussianBlur stdDeviation="3" result="blur-8"/>
      <feFlood flood-opacity="0.251"/>
      <feComposite operator="in" in2="blur-8"/>
      <feComposite in="SourceGraphic"/>
    </filter>
    <filter id="Path_9" x="268.659" y="18.85" width="43.649" height="45.403" filterUnits="userSpaceOnUse">
      <feOffset dy="3" input="SourceAlpha"/>
      <feGaussianBlur stdDeviation="3" result="blur-9"/>
      <feFlood flood-opacity="0.251"/>
      <feComposite operator="in" in2="blur-9"/>
      <feComposite in="SourceGraphic"/>
    </filter>
    <filter id="Path_10" x="162.116" y="54.035" width="25.563" height="26.331" filterUnits="userSpaceOnUse">
      <feOffset dy="3" input="SourceAlpha"/>
      <feGaussianBlur stdDeviation="3" result="blur-10"/>
      <feFlood flood-opacity="0.161"/>
      <feComposite operator="in" in2="blur-10"/>
      <feComposite in="SourceGraphic"/>
    </filter>
    <filter id="Path_11" x="170.885" y="55.898" width="24.796" height="24.467" filterUnits="userSpaceOnUse">
      <feOffset dy="3" input="SourceAlpha"/>
      <feGaussianBlur stdDeviation="3" result="blur-11"/>
      <feFlood flood-opacity="0.161"/>
      <feComposite operator="in" in2="blur-11"/>
      <feComposite in="SourceGraphic"/>
    </filter>
    <filter id="Path_12" x="178.668" y="56.118" width="24.577" height="24.248" filterUnits="userSpaceOnUse">
      <feOffset dy="3" input="SourceAlpha"/>
      <feGaussianBlur stdDeviation="3" result="blur-12"/>
      <feFlood flood-opacity="0.161"/>
      <feComposite operator="in" in2="blur-12"/>
      <feComposite in="SourceGraphic"/>
    </filter>
    <filter id="Path_13" x="186.669" y="55.898" width="22.604" height="24.358" filterUnits="userSpaceOnUse">
      <feOffset dy="3" input="SourceAlpha"/>
      <feGaussianBlur stdDeviation="3" result="blur-13"/>
      <feFlood flood-opacity="0.161"/>
      <feComposite operator="in" in2="blur-13"/>
      <feComposite in="SourceGraphic"/>
    </filter>
    <filter id="Path_14" x="191.931" y="55.898" width="28.742" height="24.357" filterUnits="userSpaceOnUse">
      <feOffset dy="3" input="SourceAlpha"/>
      <feGaussianBlur stdDeviation="3" result="blur-14"/>
      <feFlood flood-opacity="0.161"/>
      <feComposite operator="in" in2="blur-14"/>
      <feComposite in="SourceGraphic"/>
    </filter>
    <filter id="Path_15" x="203.769" y="55.898" width="24.467" height="24.467" filterUnits="userSpaceOnUse">
      <feOffset dy="3" input="SourceAlpha"/>
      <feGaussianBlur stdDeviation="3" result="blur-15"/>
      <feFlood flood-opacity="0.161"/>
      <feComposite operator="in" in2="blur-15"/>
      <feComposite in="SourceGraphic"/>
    </filter>
    <filter id="Path_16" x="210.674" y="54.802" width="22.823" height="25.673" filterUnits="userSpaceOnUse">
      <feOffset dy="3" input="SourceAlpha"/>
      <feGaussianBlur stdDeviation="3" result="blur-16"/>
      <feFlood flood-opacity="0.161"/>
      <feComposite operator="in" in2="blur-16"/>
      <feComposite in="SourceGraphic"/>
    </filter>
    <filter id="Path_17" x="219.553" y="55.898" width="23.59" height="24.467" filterUnits="userSpaceOnUse">
      <feOffset dy="3" input="SourceAlpha"/>
      <feGaussianBlur stdDeviation="3" result="blur-17"/>
      <feFlood flood-opacity="0.161"/>
      <feComposite operator="in" in2="blur-17"/>
      <feComposite in="SourceGraphic"/>
    </filter>
    <filter id="Path_18" x="226.02" y="56.118" width="24.577" height="24.248" filterUnits="userSpaceOnUse">
      <feOffset dy="3" input="SourceAlpha"/>
      <feGaussianBlur stdDeviation="3" result="blur-18"/>
      <feFlood flood-opacity="0.161"/>
      <feComposite operator="in" in2="blur-18"/>
      <feComposite in="SourceGraphic"/>
    </filter>
    <filter id="Path_19" x="234.022" y="55.898" width="22.604" height="24.358" filterUnits="userSpaceOnUse">
      <feOffset dy="3" input="SourceAlpha"/>
      <feGaussianBlur stdDeviation="3" result="blur-19"/>
      <feFlood flood-opacity="0.161"/>
      <feComposite operator="in" in2="blur-19"/>
      <feComposite in="SourceGraphic"/>
    </filter>
    <filter id="Path_20" x="238.954" y="55.898" width="24.467" height="24.467" filterUnits="userSpaceOnUse">
      <feOffset dy="3" input="SourceAlpha"/>
      <feGaussianBlur stdDeviation="3" result="blur-20"/>
      <feFlood flood-opacity="0.161"/>
      <feComposite operator="in" in2="blur-20"/>
      <feComposite in="SourceGraphic"/>
    </filter>
    <filter id="Path_21" x="246.079" y="53.487" width="24.796" height="26.879" filterUnits="userSpaceOnUse">
      <feOffset dy="3" input="SourceAlpha"/>
      <feGaussianBlur stdDeviation="3" result="blur-21"/>
      <feFlood flood-opacity="0.161"/>
      <feComposite operator="in" in2="blur-21"/>
      <feComposite in="SourceGraphic"/>
    </filter>
    <filter id="Path_22" x="257.698" y="55.898" width="28.742" height="24.357" filterUnits="userSpaceOnUse">
      <feOffset dy="3" input="SourceAlpha"/>
      <feGaussianBlur stdDeviation="3" result="blur-22"/>
      <feFlood flood-opacity="0.161"/>
      <feComposite operator="in" in2="blur-22"/>
      <feComposite in="SourceGraphic"/>
    </filter>
    <filter id="Path_23" x="269.427" y="55.898" width="24.467" height="24.467" filterUnits="userSpaceOnUse">
      <feOffset dy="3" input="SourceAlpha"/>
      <feGaussianBlur stdDeviation="3" result="blur-23"/>
      <feFlood flood-opacity="0.161"/>
      <feComposite operator="in" in2="blur-23"/>
      <feComposite in="SourceGraphic"/>
    </filter>
    <filter id="Path_24" x="276.661" y="55.898" width="24.357" height="24.467" filterUnits="userSpaceOnUse">
      <feOffset dy="3" input="SourceAlpha"/>
      <feGaussianBlur stdDeviation="3" result="blur-24"/>
      <feFlood flood-opacity="0.161"/>
      <feComposite operator="in" in2="blur-24"/>
      <feComposite in="SourceGraphic"/>
    </filter>
    <filter id="Path_25" x="283.566" y="54.802" width="22.823" height="25.673" filterUnits="userSpaceOnUse">
      <feOffset dy="3" input="SourceAlpha"/>
      <feGaussianBlur stdDeviation="3" result="blur-25"/>
      <feFlood flood-opacity="0.161"/>
      <feComposite operator="in" in2="blur-25"/>
      <feComposite in="SourceGraphic"/>
    </filter>
    <filter id="Path_26" x="288.937" y="55.898" width="23.481" height="24.467" filterUnits="userSpaceOnUse">
      <feOffset dy="3" input="SourceAlpha"/>
      <feGaussianBlur stdDeviation="3" result="blur-26"/>
      <feFlood flood-opacity="0.161"/>
      <feComposite operator="in" in2="blur-26"/>
      <feComposite in="SourceGraphic"/>
    </filter>
    <filter id="Path_27" x="12.215" y="6.135" width="72.322" height="72.09" filterUnits="userSpaceOnUse">
      <feOffset dy="3" input="SourceAlpha"/>
      <feGaussianBlur stdDeviation="3" result="blur-27"/>
      <feFlood flood-opacity="0.161"/>
      <feComposite operator="in" in2="blur-27"/>
      <feComposite in="SourceGraphic"/>
    </filter>
    <filter id="Path_28" x="13.153" y="14.027" width="18" height="18" filterUnits="userSpaceOnUse">
      <feOffset dy="3" input="SourceAlpha"/>
      <feGaussianBlur stdDeviation="3" result="blur-28"/>
      <feFlood flood-opacity="0.161"/>
      <feComposite operator="in" in2="blur-28"/>
      <feComposite in="SourceGraphic"/>
    </filter>
    <filter id="Path_29" x="0" y="0" width="32.359" height="32.465" filterUnits="userSpaceOnUse">
      <feOffset dy="3" input="SourceAlpha"/>
      <feGaussianBlur stdDeviation="3" result="blur-29"/>
      <feFlood flood-opacity="0.161"/>
      <feComposite operator="in" in2="blur-29"/>
      <feComposite in="SourceGraphic"/>
    </filter>
    <filter id="Path_30" x="54.477" y="0.435" width="32.465" height="32.25" filterUnits="userSpaceOnUse">
      <feOffset dy="3" input="SourceAlpha"/>
      <feGaussianBlur stdDeviation="3" result="blur-30"/>
      <feFlood flood-opacity="0.161"/>
      <feComposite operator="in" in2="blur-30"/>
      <feComposite in="SourceGraphic"/>
    </filter>
    <filter id="Path_31" x="63.465" y="51.185" width="32.25" height="32.465" filterUnits="userSpaceOnUse">
      <feOffset dy="3" input="SourceAlpha"/>
      <feGaussianBlur stdDeviation="3" result="blur-31"/>
      <feFlood flood-opacity="0.161"/>
      <feComposite operator="in" in2="blur-31"/>
      <feComposite in="SourceGraphic"/>
    </filter>
    <filter id="Path_32" x="3.182" y="53.706" width="32.465" height="32.359" filterUnits="userSpaceOnUse">
      <feOffset dy="3" input="SourceAlpha"/>
      <feGaussianBlur stdDeviation="3" result="blur-32"/>
      <feFlood flood-opacity="0.161"/>
      <feComposite operator="in" in2="blur-32"/>
      <feComposite in="SourceGraphic"/>
    </filter>
  </defs>
  <g id="Group_34" data-name="Group 34" transform="translate(9 5.997)">
    <g id="Group_3" data-name="Group 3" transform="translate(81.551 8.769)">
      <g id="Group_1" data-name="Group 1">
        <g class="cls-35" transform="matrix(1, 0, 0, 1, -90.55, -14.77)">
          <path id="Path_1-2" data-name="Path 1" class="cls-1" d="M74.4,44.991V8.6H92.267a10.543,10.543,0,0,1,5.371,1.315,9.274,9.274,0,0,1,3.617,3.508,9.812,9.812,0,0,1,1.206,5.042,8.734,8.734,0,0,1-.877,3.946,4.359,4.359,0,0,1-2.083,2.3,9.995,9.995,0,0,1,4.056,2.96c1.1,1.315,1.535,3.508,1.535,6.467a10.5,10.5,0,0,1-1.425,5.481,11.336,11.336,0,0,1-3.946,3.946,10.382,10.382,0,0,1-5.371,1.425H88.43V35.565H90.4a2.642,2.642,0,0,0,1.973-.767,2.745,2.745,0,0,0,.877-1.973,2.38,2.38,0,0,0-.877-1.973,2.642,2.642,0,0,0-1.973-.767H88.321V24.165h.987a2.688,2.688,0,0,0,1.754-.658,2.587,2.587,0,0,0,.767-1.754A2.335,2.335,0,0,0,91.061,20a2.587,2.587,0,0,0-1.754-.767H86.238V45.1H74.4Z" transform="translate(16.15 6.82)"/>
        </g>
        <g class="cls-34" transform="matrix(1, 0, 0, 1, -90.55, -14.77)">
          <path id="Path_2-2" data-name="Path 2" class="cls-1" d="M103.5,44.126V30.863a12.979,12.979,0,0,1,1.754-6.686A13.136,13.136,0,0,1,116.763,17.6v9.755a2.959,2.959,0,0,0-2.411,1.1,3.472,3.472,0,0,0-.987,2.521V44.236H103.5Z" transform="translate(18.95 7.69)"/>
        </g>
        <g class="cls-33" transform="matrix(1, 0, 0, 1, -90.55, -14.77)">
          <path id="Path_3-2" data-name="Path 3" class="cls-1" d="M142.784,44.155h-9.755V30.892a3.837,3.837,0,1,0-6.577,2.74,3.636,3.636,0,0,0,2.74,1.1,10.381,10.381,0,0,0,2.411-.219v9.755a8.6,8.6,0,0,1-2.411.219,13.479,13.479,0,0,1-6.8-1.863,13.312,13.312,0,0,1-4.933-4.933,13.324,13.324,0,0,1,0-13.592,13.312,13.312,0,0,1,4.933-4.933,13.324,13.324,0,0,1,13.592,0A13.312,13.312,0,0,1,140.92,24.1a13.479,13.479,0,0,1,1.863,6.8Z" transform="translate(20.11 7.66)"/>
        </g>
        <g class="cls-32" transform="matrix(1, 0, 0, 1, -90.55, -14.77)">
          <path id="Path_4-2" data-name="Path 4" class="cls-1" d="M170.984,44.155h-9.755V30.892a3.837,3.837,0,1,0-6.577,2.74,3.636,3.636,0,0,0,2.74,1.1,10.381,10.381,0,0,0,2.411-.219v9.755a8.6,8.6,0,0,1-2.411.219,13.479,13.479,0,0,1-6.8-1.863,13.312,13.312,0,0,1-4.933-4.933,13.324,13.324,0,0,1,0-13.592,13.312,13.312,0,0,1,4.933-4.933,13.324,13.324,0,0,1,13.592,0A13.312,13.312,0,0,1,169.12,24.1a13.479,13.479,0,0,1,1.863,6.8Z" transform="translate(22.82 7.66)"/>
        </g>
        <g class="cls-31" transform="matrix(1, 0, 0, 1, -90.55, -14.77)">
          <path id="Path_5-2" data-name="Path 5" class="cls-1" d="M178.833,8a4.8,4.8,0,0,1,3.508,1.425,4.63,4.63,0,0,1,1.425,3.508,5.092,5.092,0,0,1-.658,2.521,4.5,4.5,0,0,1-1.754,1.754,4.694,4.694,0,0,1-2.411.658,4.8,4.8,0,0,1-3.508-1.425,4.63,4.63,0,0,1-1.425-3.508,4.8,4.8,0,0,1,1.425-3.508A4.243,4.243,0,0,1,178.833,8ZM173.9,45.049V18.413h9.755V44.939H173.9Z" transform="translate(25.72 6.77)"/>
        </g>
        <g class="cls-30" transform="matrix(1, 0, 0, 1, -90.55, -14.77)">
          <path id="Path_6-2" data-name="Path 6" class="cls-1" d="M184,11.2h9.755v6.906h3.508V28.628h-3.4v2.85a2.831,2.831,0,0,0,.987,2.3,3.391,3.391,0,0,0,2.521.877v9.755c-.987.11-1.644.219-2.083.219A11.287,11.287,0,0,1,189.7,43.1a11.268,11.268,0,0,1-5.59-9.646V11.2Z" transform="translate(26.69 7.07)"/>
        </g>
        <g class="cls-29" transform="matrix(1, 0, 0, 1, -90.55, -14.77)">
          <path id="Path_7-2" data-name="Path 7" class="cls-1" d="M202.833,8a4.8,4.8,0,0,1,3.508,1.425,4.63,4.63,0,0,1,1.425,3.508,5.092,5.092,0,0,1-.658,2.521,4.5,4.5,0,0,1-1.754,1.754,4.694,4.694,0,0,1-2.411.658,4.8,4.8,0,0,1-3.508-1.425,4.63,4.63,0,0,1-1.425-3.508,4.8,4.8,0,0,1,1.425-3.508A4.4,4.4,0,0,1,202.833,8ZM197.9,45.049V18.413h9.755V44.939H197.9Z" transform="translate(28.02 6.77)"/>
        </g>
        <g class="cls-28" transform="matrix(1, 0, 0, 1, -90.55, -14.77)">
          <path id="Path_8-2" data-name="Path 8" class="cls-1" d="M235.984,27.613a1.99,1.99,0,0,0-1.535-.658,1.767,1.767,0,0,0-1.425.658,2.376,2.376,0,0,0-.548,1.535V44.165h-9.755V29.148a2.164,2.164,0,0,0-.658-1.535,1.99,1.99,0,0,0-1.535-.658,1.767,1.767,0,0,0-1.425.658,1.909,1.909,0,0,0-.548,1.535V44.165H208.8V29.477a13.064,13.064,0,0,1,1.535-6.138,11.233,11.233,0,0,1,4.275-4.494,11.592,11.592,0,0,1,6.029-1.644,11.071,11.071,0,0,1,6.906,2.85,11.344,11.344,0,0,1,7.015-2.85,11.7,11.7,0,0,1,6.138,1.644,12.025,12.025,0,0,1,4.275,4.494,13.064,13.064,0,0,1,1.535,6.138V44.165h-9.865V29.148A1.99,1.99,0,0,0,235.984,27.613Z" transform="translate(29.07 7.65)"/>
        </g>
        <g class="cls-27" transform="matrix(1, 0, 0, 1, -90.55, -14.77)">
          <path id="Path_9-2" data-name="Path 9" class="cls-1" d="M258.692,17.2c5.261,0,9.317,2.411,12.057,7.344l-8.221,9.427a7.351,7.351,0,0,0,3.946-1.315l2.74,9.427a22.06,22.06,0,0,1-3.4,1.535,26.965,26.965,0,0,1-3.179.767,21.314,21.314,0,0,1-3.946.219,13.479,13.479,0,0,1-6.8-1.863,13.312,13.312,0,0,1-4.933-4.933,13.479,13.479,0,0,1-1.863-6.8,12.246,12.246,0,0,1,1.1-5.261,13.464,13.464,0,0,1,2.96-4.384,17.142,17.142,0,0,1,4.384-2.96A10.218,10.218,0,0,1,258.692,17.2Zm0,10.194a3.658,3.658,0,0,0-2.521.987,3.472,3.472,0,0,0-.987,2.521,3.83,3.83,0,0,0,.877,2.411l4.6-5.261A2.557,2.557,0,0,0,258.692,27.394Z" transform="translate(32.56 7.65)"/>
        </g>
      </g>
      <g id="Group_2" data-name="Group 2" transform="translate(80.565 44.722)">
        <g class="cls-26" transform="matrix(1, 0, 0, 1, -171.12, -59.49)">
          <path id="Path_10-2" data-name="Path 10" class="cls-1" d="M151.846,52.917h3.617v4.275a4.4,4.4,0,0,1-1.644.329,8.3,8.3,0,0,1-1.644.11,4.161,4.161,0,0,1-3.179-1.1,4.061,4.061,0,0,1-1.1-3.069,3.824,3.824,0,0,1,1.315-3.069,5.176,5.176,0,0,1,3.508-1.1,7.632,7.632,0,0,1,2.74.548l-.658,1.425a4.75,4.75,0,0,0-2.083-.438,2.729,2.729,0,0,0-2.083.767,2.641,2.641,0,0,0-.767,1.973,3.16,3.16,0,0,0,.658,2.083,2.314,2.314,0,0,0,1.754.658,4.5,4.5,0,0,0,1.206-.11V54.452h-1.754V52.917Z" transform="translate(23.22 10.74)"/>
        </g>
        <g class="cls-25" transform="matrix(1, 0, 0, 1, -171.12, -59.49)">
          <path id="Path_11-2" data-name="Path 11" class="cls-1" d="M162.7,54.179a3.412,3.412,0,0,1-.877,2.411,3.7,3.7,0,0,1-2.521.877,2.988,2.988,0,0,1-1.754-.438,2.916,2.916,0,0,1-1.206-1.1,2.988,2.988,0,0,1-.438-1.754,3.412,3.412,0,0,1,.877-2.411A3.479,3.479,0,0,1,159.3,51a2.988,2.988,0,0,1,1.754.438,2.916,2.916,0,0,1,1.206,1.1A2.642,2.642,0,0,1,162.7,54.179Zm-4.933,0a2.487,2.487,0,0,0,.329,1.425,1.589,1.589,0,0,0,2.192,0,3.252,3.252,0,0,0,0-2.85,1.589,1.589,0,0,0-2.192,0A3.034,3.034,0,0,0,157.763,54.179Z" transform="translate(23.99 10.9)"/>
        </g>
        <g class="cls-24" transform="matrix(1, 0, 0, 1, -171.12, -59.49)">
          <path id="Path_12-2" data-name="Path 12" class="cls-1" d="M168.042,57.338l-.219-.767h-.11a1.7,1.7,0,0,1-.877.658,4.088,4.088,0,0,1-1.315.219,2.9,2.9,0,0,1-1.863-.548A2.231,2.231,0,0,1,163,55.256V51.2h1.973v3.617a2.189,2.189,0,0,0,.219.987,1.079,1.079,0,0,0,.877.329,1.5,1.5,0,0,0,1.206-.438,2.9,2.9,0,0,0,.329-1.535V51.2h1.973v6.248h-1.535Z" transform="translate(24.67 10.92)"/>
        </g>
        <g class="cls-23" transform="matrix(1, 0, 0, 1, -171.12, -59.49)">
          <path id="Path_13-2" data-name="Path 13" class="cls-1" d="M174.246,51h.658l-.11,1.644a4.747,4.747,0,0,0-.548-.11,1.86,1.86,0,0,0-1.425.438,1.57,1.57,0,0,0-.548,1.206v3.179H170.3V51.11h1.425l.329,1.1h.11a3.335,3.335,0,0,1,.877-.877A2.21,2.21,0,0,1,174.246,51Z" transform="translate(25.37 10.9)"/>
        </g>
        <g class="cls-22" transform="matrix(1, 0, 0, 1, -171.12, -59.49)">
          <path id="Path_14-2" data-name="Path 14" class="cls-1" d="M181.457,57.358h-1.973V53.74a2.189,2.189,0,0,0-.219-.987,1,1,0,0,0-.767-.329,1.271,1.271,0,0,0-1.1.438,2.9,2.9,0,0,0-.329,1.535v2.96H175.1V51.11h1.425l.219.767h.11a1.474,1.474,0,0,1,.767-.658A3.94,3.94,0,0,1,178.827,51a2.572,2.572,0,0,1,2.192.877h.219a1.361,1.361,0,0,1,.877-.658A3.94,3.94,0,0,1,183.321,51a3.135,3.135,0,0,1,1.863.548,2.158,2.158,0,0,1,.658,1.754v4.056h-1.973V53.74a2.189,2.189,0,0,0-.219-.987,1,1,0,0,0-.767-.329,1.271,1.271,0,0,0-1.1.438,2.487,2.487,0,0,0-.329,1.425v3.069Z" transform="translate(25.83 10.9)"/>
        </g>
        <g class="cls-21" transform="matrix(1, 0, 0, 1, -171.12, -59.49)">
          <path id="Path_15-2" data-name="Path 15" class="cls-1" d="M189.517,57.467a4,4,0,0,1-2.631-.877,2.831,2.831,0,0,1-.986-2.3,3.23,3.23,0,0,1,.877-2.411A3.412,3.412,0,0,1,189.188,51a3.088,3.088,0,0,1,2.3.767,2.806,2.806,0,0,1,.877,2.083v.877h-4.494a1.674,1.674,0,0,0,.438,1.1,2.35,2.35,0,0,0,1.315.438,4.11,4.11,0,0,0,1.206-.11c.329-.11.767-.219,1.206-.329v1.315c-.329.11-.658.219-1.1.329Zm-.329-5.261a1.34,1.34,0,0,0-.987.329,2.066,2.066,0,0,0-.438.987h2.74a1.163,1.163,0,0,0-1.315-1.315Z" transform="translate(26.87 10.9)"/>
        </g>
        <g class="cls-20" transform="matrix(1, 0, 0, 1, -171.12, -59.49)">
          <path id="Path_16-2" data-name="Path 16" class="cls-1" d="M195.817,56.248a5.656,5.656,0,0,0,1.206-.219v1.315a4.174,4.174,0,0,1-1.754.329,2.269,2.269,0,0,1-1.644-.548,2.168,2.168,0,0,1-.548-1.535v-2.96H192.2v-.767l1.1-.548L193.844,50h1.206v1.315h1.973v1.315H195.05v2.85a.837.837,0,0,0,.219.548C195.269,56.138,195.488,56.248,195.817,56.248Z" transform="translate(27.47 10.8)"/>
        </g>
        <g class="cls-19" transform="matrix(1, 0, 0, 1, -171.12, -59.49)">
          <path id="Path_17-2" data-name="Path 17" class="cls-1" d="M203.588,57.467c-2.192,0-3.288-1.1-3.288-3.179a3.23,3.23,0,0,1,.877-2.411A3.506,3.506,0,0,1,203.7,51a4.907,4.907,0,0,1,2.192.438l-.548,1.315a2.58,2.58,0,0,0-.877-.219c-.329,0-.548-.11-.767-.11-.987,0-1.535.658-1.535,1.863s.548,1.863,1.535,1.863a3.035,3.035,0,0,0,.986-.11,3.893,3.893,0,0,0,.986-.438v1.425a1.768,1.768,0,0,1-.986.329A3.055,3.055,0,0,1,203.588,57.467Z" transform="translate(28.25 10.9)"/>
        </g>
        <g class="cls-18" transform="matrix(1, 0, 0, 1, -171.12, -59.49)">
          <path id="Path_18-2" data-name="Path 18" class="cls-1" d="M211.242,57.338l-.219-.767h-.11a1.7,1.7,0,0,1-.877.658,4.088,4.088,0,0,1-1.315.219,2.9,2.9,0,0,1-1.863-.548,2.231,2.231,0,0,1-.658-1.644V51.2h1.973v3.617a2.189,2.189,0,0,0,.219.987,1.079,1.079,0,0,0,.877.329,1.5,1.5,0,0,0,1.206-.438,2.9,2.9,0,0,0,.329-1.535V51.2h1.973v6.248h-1.535Z" transform="translate(28.82 10.92)"/>
        </g>
        <g class="cls-17" transform="matrix(1, 0, 0, 1, -171.12, -59.49)">
          <path id="Path_19-2" data-name="Path 19" class="cls-1" d="M217.446,51h.658l-.11,1.644a4.747,4.747,0,0,0-.548-.11,1.86,1.86,0,0,0-1.425.438,1.57,1.57,0,0,0-.548,1.206v3.179H213.5V51.11h1.425l.329,1.1h.11a3.336,3.336,0,0,1,.877-.877A2.21,2.21,0,0,1,217.446,51Z" transform="translate(29.52 10.9)"/>
        </g>
        <g class="cls-16" transform="matrix(1, 0, 0, 1, -171.12, -59.49)">
          <path id="Path_20-2" data-name="Path 20" class="cls-1" d="M221.617,57.467a4,4,0,0,1-2.631-.877,2.831,2.831,0,0,1-.987-2.3,3.23,3.23,0,0,1,.877-2.411A3.412,3.412,0,0,1,221.288,51a3.088,3.088,0,0,1,2.3.767,2.807,2.807,0,0,1,.877,2.083v.877h-4.494a1.674,1.674,0,0,0,.438,1.1,2.351,2.351,0,0,0,1.315.438,4.11,4.11,0,0,0,1.206-.11c.329-.11.767-.219,1.206-.329v1.315c-.329.11-.658.219-1.1.329Zm-.219-5.261a1.34,1.34,0,0,0-.987.329,2.065,2.065,0,0,0-.438.987h2.74a1.34,1.34,0,0,0-.329-.987A1.768,1.768,0,0,0,221.4,52.206Z" transform="translate(29.95 10.9)"/>
        </g>
        <g class="cls-15" transform="matrix(1, 0, 0, 1, -171.12, -59.49)">
          <path id="Path_21-2" data-name="Path 21" class="cls-1" d="M227.131,57.679a2.567,2.567,0,0,1-1.973-.877,3.725,3.725,0,0,1-.658-2.411,3.364,3.364,0,0,1,.767-2.411,2.408,2.408,0,0,1,1.973-.877,2.806,2.806,0,0,1,2.083.877h.11a4.914,4.914,0,0,1-.11-1.206V48.8H231.3v8.659h-1.425l-.329-.767h-.11A3.342,3.342,0,0,1,227.131,57.679Zm.658-1.315a1.637,1.637,0,0,0,1.1-.329,1.9,1.9,0,0,0,.329-1.315V54.5a2.487,2.487,0,0,0-.329-1.425,1.271,1.271,0,0,0-1.1-.438,1.068,1.068,0,0,0-.986.438,3.252,3.252,0,0,0,0,2.85A1.389,1.389,0,0,0,227.788,56.363Z" transform="translate(30.58 10.69)"/>
        </g>
        <g class="cls-14" transform="matrix(1, 0, 0, 1, -171.12, -59.49)">
          <path id="Path_22-2" data-name="Path 22" class="cls-1" d="M241.458,57.358h-1.973V53.74a2.189,2.189,0,0,0-.219-.987,1,1,0,0,0-.767-.329,1.271,1.271,0,0,0-1.1.438,2.9,2.9,0,0,0-.329,1.535v2.96H235.1V51.11h1.425l.219.767h.11a1.474,1.474,0,0,1,.767-.658A3.94,3.94,0,0,1,238.827,51a2.572,2.572,0,0,1,2.192.877h.219a1.361,1.361,0,0,1,.877-.658A3.94,3.94,0,0,1,243.321,51a3.135,3.135,0,0,1,1.863.548,2.158,2.158,0,0,1,.658,1.754v4.056h-1.973V53.74a2.189,2.189,0,0,0-.219-.987,1,1,0,0,0-.767-.329,1.271,1.271,0,0,0-1.1.438,2.487,2.487,0,0,0-.329,1.425Z" transform="translate(31.6 10.9)"/>
        </g>
        <g class="cls-13" transform="matrix(1, 0, 0, 1, -171.12, -59.49)">
          <path id="Path_23-2" data-name="Path 23" class="cls-1" d="M249.417,57.467a4,4,0,0,1-2.631-.877,2.831,2.831,0,0,1-.986-2.3,3.23,3.23,0,0,1,.877-2.411A3.412,3.412,0,0,1,249.088,51a3.088,3.088,0,0,1,2.3.767,2.807,2.807,0,0,1,.877,2.083v.877h-4.494a1.675,1.675,0,0,0,.438,1.1,2.35,2.35,0,0,0,1.315.438,4.11,4.11,0,0,0,1.206-.11c.329-.11.767-.219,1.206-.329v1.315c-.329.11-.658.219-1.1.329Zm-.219-5.261a1.34,1.34,0,0,0-.987.329,2.066,2.066,0,0,0-.438.987h2.74a1.163,1.163,0,0,0-1.315-1.315Z" transform="translate(32.63 10.9)"/>
        </g>
        <g class="cls-12" transform="matrix(1, 0, 0, 1, -171.12, -59.49)">
          <path id="Path_24-2" data-name="Path 24" class="cls-1" d="M257.223,57.358l-.329-.877h0a3.022,3.022,0,0,1-.986.767,4.088,4.088,0,0,1-1.315.219,2.692,2.692,0,0,1-1.644-.548,1.683,1.683,0,0,1-.548-1.425,1.487,1.487,0,0,1,.767-1.425,6.015,6.015,0,0,1,2.411-.548h1.206v-.329c0-.658-.329-.987-1.1-.987a4.976,4.976,0,0,0-1.973.438l-.658-1.1A7.181,7.181,0,0,1,255.8,51a4.031,4.031,0,0,1,2.192.548,1.73,1.73,0,0,1,.767,1.644v4.165Zm-.548-2.85h-.767a2.933,2.933,0,0,0-1.206.219.923.923,0,0,0-.438.767.782.782,0,0,0,.877.767,1.852,1.852,0,0,0,1.1-.329,1.353,1.353,0,0,0,.438-.877Z" transform="translate(33.26 10.9)"/>
        </g>
        <g class="cls-11" transform="matrix(1, 0, 0, 1, -171.12, -59.49)">
          <path id="Path_25-2" data-name="Path 25" class="cls-1" d="M262.317,56.248a5.656,5.656,0,0,0,1.206-.219v1.315a4.174,4.174,0,0,1-1.754.329,2.269,2.269,0,0,1-1.644-.548,2.168,2.168,0,0,1-.548-1.535v-2.96H258.7v-.767l1.1-.548L260.344,50h1.206v1.315h1.973v1.315H261.55v2.85a.749.749,0,0,0,.767.767Z" transform="translate(33.87 10.8)"/>
        </g>
        <g class="cls-10" transform="matrix(1, 0, 0, 1, -171.12, -59.49)">
          <path id="Path_26-2" data-name="Path 26" class="cls-1" d="M268.971,55.494a1.487,1.487,0,0,1-.767,1.425,4.177,4.177,0,0,1-2.3.548,4.517,4.517,0,0,1-1.315-.11c-.329-.11-.658-.11-.987-.219V55.713c.329.11.767.219,1.206.329a4.916,4.916,0,0,0,1.206.11c.658,0,1.1-.219,1.1-.548a.4.4,0,0,0-.11-.329,1.513,1.513,0,0,0-.438-.329,7.551,7.551,0,0,0-.877-.329c-.548-.219-.987-.438-1.206-.548a1.321,1.321,0,0,1-.548-.548,2.033,2.033,0,0,1-.219-.767,1.431,1.431,0,0,1,.767-1.315A3.684,3.684,0,0,1,266.56,51a6.8,6.8,0,0,1,2.521.438l-.548,1.206-.987-.329a3.035,3.035,0,0,0-.987-.11c-.548,0-.877.11-.877.438a.831.831,0,0,0,.219.438,6.725,6.725,0,0,0,1.206.548,4.2,4.2,0,0,1,1.206.548c.219.219.438.329.548.548A1.625,1.625,0,0,1,268.971,55.494Z" transform="translate(34.34 10.9)"/>
        </g>
      </g>
    </g>
    <g id="Group_4" data-name="Group 4" transform="translate(0 0.003)">
      <g class="cls-9" transform="matrix(1, 0, 0, 1, -9, -6)">
        <path id="Path_27-2" data-name="Path 27" class="cls-2" d="M65.463,30.811A29.755,29.755,0,0,1,54.941,54.158a24.681,24.681,0,0,1-12.5,5.371,26.242,26.242,0,0,1-13.592-2.192A29.036,29.036,0,0,1,11.644,36.291a28.118,28.118,0,0,1,.987-14.14,24.272,24.272,0,0,1,8.221-11.838A22.166,22.166,0,0,1,34.662,5.6a21.024,21.024,0,0,1,13.7,5.152A20.95,20.95,0,0,1,54.831,23.8a23.769,23.769,0,0,1-.548,7.344,16.855,16.855,0,0,1-3.4,6.686A15.147,15.147,0,0,1,37.4,43.307c-.658-.11-1.206-.219-1.863-.329-.548-.219-1.206-.438-1.754-.658a13.406,13.406,0,0,1-3.179-1.863,12.285,12.285,0,0,1-4.275-6.029c-.329-1.1-.548-2.3-.767-3.4,0-.548-.11-1.1-.11-1.644a12.588,12.588,0,0,1,.11-1.973A7.631,7.631,0,0,1,30.5,22.042a6.836,6.836,0,0,1,3.617-.329,6.643,6.643,0,0,1,3.179,1.535,5.851,5.851,0,0,1,1.973,2.85,3.625,3.625,0,0,1-.548,3.179,3.492,3.492,0,0,0,0-2.96,4.542,4.542,0,0,0-2.083-1.973,6.466,6.466,0,0,0-2.74-.767,4.582,4.582,0,0,0-2.631.548A5.256,5.256,0,0,0,28.2,28.07a8.805,8.805,0,0,0,.329,2.74,11.437,11.437,0,0,0,.877,2.74,8.834,8.834,0,0,0,3.4,4.056,9.6,9.6,0,0,0,2.411,1.1l1.315.329c.438,0,.877.219,1.315.219a10.323,10.323,0,0,0,9.1-4.275A14.4,14.4,0,0,0,49.35,24.782a14.989,14.989,0,0,0-4.933-9.317,12.457,12.457,0,0,0-4.494-2.631,17.641,17.641,0,0,0-5.261-.877,16.48,16.48,0,0,0-9.975,3.508,18.34,18.34,0,0,0-6.248,8.879,24.234,24.234,0,0,0-.987,11.18,23.269,23.269,0,0,0,4.494,10.413,26.55,26.55,0,0,0,8.988,7.344A23.662,23.662,0,0,0,42.226,55.8,21.239,21.239,0,0,0,53.3,52.076C59.983,47.253,64.258,39.251,65.463,30.811Z" transform="translate(10.07 6.53)"/>
      </g>
      <g class="cls-8" transform="matrix(1, 0, 0, 1, -9, -6)">
        <path id="Path_28-2" data-name="Path 28" class="cls-3" d="M12,12.8" transform="translate(10.15 7.23)"/>
      </g>
      <g class="cls-7" transform="matrix(1, 0, 0, 1, -9, -6)">
        <path id="Path_29-2" data-name="Path 29" class="cls-2" d="M0,2.192A8.031,8.031,0,0,1,2.521.438,5.042,5.042,0,0,1,6.358.329,5.9,5.9,0,0,1,9.207,3.4a12.16,12.16,0,0,1,.767,3.179c.11.987.11,2.083.219,2.74a5.081,5.081,0,0,0,.219,1.535c.11.438.767.987,1.425,1.425.767.438,1.644.877,2.521,1.425a9.717,9.717,0,0,1-3.069.767,5.561,5.561,0,0,1-3.508-.987A6.271,6.271,0,0,1,5.7,9.974C5.481,8.769,5.371,8,5.261,7.124s-.219-1.644-.329-2.3a3.053,3.053,0,0,0-.438-1.315c-.11-.329-.767-.658-1.644-.877S1.1,2.411,0,2.192Z" transform="translate(9 6)"/>
      </g>
      <g class="cls-6" transform="matrix(1, 0, 0, 1, -9, -6)">
        <path id="Path_30-2" data-name="Path 30" class="cls-2" d="M61.977.4A8.03,8.03,0,0,1,63.73,2.921a4.8,4.8,0,0,1,.11,3.727A5.9,5.9,0,0,1,60.771,9.5a12.16,12.16,0,0,1-3.179.767c-.987.11-2.083.11-2.74.219a5.081,5.081,0,0,0-1.535.219c-.438.11-.987.767-1.425,1.425-.438.767-.877,1.644-1.425,2.521A9.717,9.717,0,0,1,49.7,11.58a5.561,5.561,0,0,1,.987-3.508,5.507,5.507,0,0,1,3.4-1.973c1.206-.219,1.973-.329,2.85-.438s1.644-.219,2.3-.329a3.053,3.053,0,0,0,1.315-.438c.438-.11.767-.877.987-1.644C61.757,2.373,61.757,1.387,61.977.4Z" transform="translate(13.78 6.03)"/>
      </g>
      <g class="cls-5" transform="matrix(1, 0, 0, 1, -9, -6)">
        <path id="Path_31-2" data-name="Path 31" class="cls-2" d="M72.15,58.977a8.03,8.03,0,0,1-2.521,1.754,4.8,4.8,0,0,1-3.727.11,5.9,5.9,0,0,1-2.85-3.069,12.16,12.16,0,0,1-.767-3.179c-.11-.987-.11-2.083-.219-2.74a5.081,5.081,0,0,0-.219-1.535c-.11-.438-.767-.987-1.425-1.425-.767-.438-1.644-.877-2.521-1.425a9.717,9.717,0,0,1,3.069-.767,5.038,5.038,0,0,1,5.481,4.384c.219,1.206.329,1.973.438,2.85s.219,1.644.329,2.3a3.053,3.053,0,0,0,.438,1.315,3.236,3.236,0,0,0,1.644.877A21.887,21.887,0,0,0,72.15,58.977Z" transform="translate(14.57 10.49)"/>
      </g>
      <g class="cls-4" transform="matrix(1, 0, 0, 1, -9, -6)">
        <path id="Path_32-2" data-name="Path 32" class="cls-2" d="M5.092,63.359a8.031,8.031,0,0,1-1.754-2.521,4.8,4.8,0,0,1-.11-3.727A5.381,5.381,0,0,1,6.3,54.152a12.161,12.161,0,0,1,3.179-.767c.987-.11,2.083-.11,2.74-.219a5.081,5.081,0,0,0,1.535-.219c.438-.11.987-.767,1.425-1.425.438-.767.877-1.644,1.425-2.521a9.717,9.717,0,0,1,.767,3.069,5.561,5.561,0,0,1-.987,3.508,5.507,5.507,0,0,1-3.4,1.973c-1.206.219-1.973.329-2.85.438s-1.644.219-2.3.329a3.052,3.052,0,0,0-1.315.438A3.236,3.236,0,0,0,5.64,60.4,20.425,20.425,0,0,0,5.092,63.359Z" transform="translate(9.28 10.71)"/>
      </g>
    </g>
  </g>
</svg>
