<!-- Generator: Adobe Illustrator 22.1.0, SVG Export Plug-In  -->
<svg version="1.1"
     xmlns="http://www.w3.org/2000/svg" xmlns:xlink="http://www.w3.org/1999/xlink" xmlns:a="http://ns.adobe.com/AdobeSVGViewerExtensions/3.0/"
     x="0px" y="0px" width="317.2px" height="169.8px" viewBox="0 0 317.2 169.8" style="enable-background:new 0 0 317.2 169.8;"
     xml:space="preserve">
<style type="text/css">
    .st0{fill:#FFFFFF;}
</style>
<defs>
</defs>
<path class="st0" d="M251.5,169.8c-16.1,0-35.4-1.4-49.6-3.1c-7.5-0.9-14-1.7-19.4-2.3c-26.5-3.1-32.1-3.7-35.4-9.7
    c-3-5.4-17.2-20.9-37.7-33.7c-20.5-12.8-54.1-29.4-66.7-32.9c-2.8-0.8-5.5-1.4-8.1-2.1c-9-2.2-16.8-4.1-22.3-9.1l-0.5-0.4
    c-3.5-3.1-10-9-11.5-20.5C-1.4,42.5,4.2,24.8,17.1,3.2L19,0l2.2,3c0.4,0.5,36.6,49.3,69.5,62.6c34.2,13.8,51.9,18.7,66.7,11.1
    c17.8-9.2,29.3-13.1,32.1-14c0.8-0.7,1.8-1.1,2.8-1.2c1.4-0.1,2.8,0.6,3.6,1.7c28.8,36.1,51.8,47.5,58.2,50.1
    c3.8,1.6,7.5,3.1,10.9,4.5c24.1,9.9,37.3,15.4,43.1,19.3c5.3,3.6,12,13,7.4,23.3c-3.9,8.7-20.6,8.6-35.4,8.6c-4.9,0-9.6,0-13.1,0.3
    C262.5,169.7,257.2,169.8,251.5,169.8z M19.5,9C-6.2,53.7,8.7,67,15.2,72.8l0.5,0.5c4.6,4.1,11.4,5.8,20.1,7.9
    c2.7,0.7,5.4,1.3,8.3,2.1c12.9,3.6,47.2,20.4,68,33.4c20.6,12.9,35.7,28.8,39.4,35.5c2,3.6,6.7,4.3,31.6,7.1
    c5.5,0.6,11.9,1.4,19.5,2.3c18.9,2.3,47,4.1,64.1,2.5c3.8-0.3,8.5-0.3,13.6-0.3c11.9,0.1,28.3,0.1,30.8-5.6
    c3.4-7.8-2.3-14.9-5.6-17.2c-5.4-3.6-19.3-9.3-42.3-18.8c-3.4-1.4-7.1-2.9-10.9-4.5c-25.7-10.6-51.6-40.9-59.7-51l-0.1,0.1l-0.9,0.3
    c-0.1,0-12.1,3.6-31.9,13.8c-16.5,8.5-35.2,3.5-70.8-10.9C59.1,58.2,28.1,20.1,19.5,9z"/>
</svg>
