
<!-- Generator: Adobe Illustrator 22.1.0, SVG Export Plug-In  -->
<svg version="1.1"
	 xmlns="http://www.w3.org/2000/svg" xmlns:xlink="http://www.w3.org/1999/xlink" xmlns:a="http://ns.adobe.com/AdobeSVGViewerExtensions/3.0/"
	 x="0px" y="0px" width="617.4px" height="60.3px" viewBox="0 0 617.4 60.3" style="enable-background:new 0 0 617.4 60.3;"
	 xml:space="preserve">
<style type="text/css">
	.st0{fill:#FF9D00;}
</style>
<defs>
</defs>
<g>
	<path class="st0" d="M30.3,6.9c0.6,0.4,0.9,0.9,0.9,1.4c0,0.4-0.3,1.1-0.8,1.8c-0.6,0.9-1.2,1.3-1.7,1.3c-0.3,0-0.7-0.2-1.2-0.5
		C26,10,24.6,9.3,23.3,8.9c-1.3-0.4-2.7-0.7-4.4-0.7c-2.5,0.1-4.5,0.8-6.1,2.2c-1.5,1.4-2.3,3.4-2.3,6c0,2.1,0.6,3.9,1.8,5.5
		c1.2,1.5,3.1,3.4,5.6,5.6l1.9,1.6c3.2,2.7,5.7,5.4,7.6,8c1.9,2.6,2.9,5.7,2.9,9.1c0,4.3-1.3,7.7-3.9,10.3c-2.6,2.6-6,3.8-10.3,3.8
		c-3.1,0-5.8-0.7-8.3-2.1c-2.5-1.4-4.9-3.4-7.3-6.1C0.2,51.7,0,51.3,0,51c0-0.5,0.4-1.2,1.3-2C2,48.2,2.5,47.9,3,47.9
		c0.4,0,0.8,0.2,1.1,0.6c2.1,2.3,4.1,4,5.9,5.1c1.8,1.1,3.8,1.6,6,1.6c2.7,0,5-0.8,6.7-2.3c1.7-1.5,2.6-3.7,2.6-6.6
		c0-1.8-0.4-3.5-1.2-5.1c-0.8-1.6-1.8-2.9-2.8-4s-2.5-2.4-4.4-4.1l-1.8-1.5c-2.1-1.8-3.8-3.4-5-4.7c-1.3-1.3-2.3-2.8-3.2-4.6
		c-0.9-1.8-1.3-3.9-1.3-6.2c0-4,1.3-7.2,3.9-9.5c2.6-2.3,5.9-3.5,9.8-3.5C23.4,3.2,27.1,4.4,30.3,6.9z"/>
	<path class="st0" d="M57.9,25.6c1.6,2.5,2.5,5.5,2.5,9.1c0,4.7-0.6,9.1-1.7,12.9c-1.1,3.9-2.8,7-5.1,9.3c-2.3,2.3-5,3.5-8.3,3.5
		c-2.8-0.1-5-1.3-6.6-3.8c-1.6-2.5-2.5-5.5-2.5-9.1c0-4.7,0.6-9.1,1.7-12.9c1.1-3.9,2.8-7,5.1-9.3c2.3-2.3,5-3.5,8.3-3.5
		C54,21.8,56.2,23.1,57.9,25.6z M51.6,52.1c1.5-2.3,2.5-5,3.1-8c0.6-3,0.9-5.8,0.9-8.3c0-2.8-0.4-5-1.2-6.7c-0.8-1.6-2-2.5-3.6-2.5
		c-2.4,0-4.4,1.1-5.8,3.4c-1.5,2.3-2.5,4.9-3.1,7.9c-0.6,3-0.9,5.8-0.9,8.3c0,2.8,0.4,5,1.2,6.7c0.8,1.7,2,2.6,3.6,2.6
		C48.2,55.6,50.1,54.4,51.6,52.1z"/>
	<path class="st0" d="M79.6,58.4c-1.7,1.3-3.5,1.9-5.5,1.9c-2.4,0-4.4-0.8-5.9-2.4C66.7,56.4,66,54,66,50.9c0-2.6,0.1-5.1,0.4-7.6
		s0.6-6.1,1.2-10.7l0.9-7.5c0.1-1.1,0.3-1.7,0.6-2.1c0.3-0.3,0.8-0.6,1.5-0.8c1.1-0.2,1.7-0.3,1.8-0.3c0.5,0,0.8,0.1,1,0.4
		c0.2,0.3,0.2,0.8,0.1,1.4L73,25.6c-0.1,0.8-0.5,4.3-1.2,10.5c-0.7,6.2-1.1,10.6-1,13.4c0,3.9,1.3,5.9,4,5.9c2.6,0,4.7-1.4,6.4-4.1
		c1.7-2.8,2.8-6.5,3.4-11.3L86.4,25c0.1-1.1,0.2-1.7,0.5-2.1c0.3-0.3,0.8-0.6,1.5-0.8c1.1-0.2,1.7-0.3,1.9-0.3
		c0.4,0,0.7,0.1,0.8,0.4c0.1,0.3,0.1,0.7,0,1.4c0,0.6-0.2,2.7-0.6,6.1c-0.8,5.8-1.4,11.3-1.9,16.6c-0.2,2.7-0.4,6.8-0.6,12.1
		c-0.1,0.8-0.7,1.3-1.9,1.5c-0.6,0.1-1,0.2-1.2,0.2c-0.6,0-1.1-0.2-1.3-0.7c-0.2-0.4-0.3-1.3-0.2-2.4c0-1,0.1-2.3,0.2-3.8
		C82.6,55.4,81.2,57.1,79.6,58.4z"/>
	<path class="st0" d="M113.5,22.7c0.3,0.2,0.4,0.4,0.4,0.8c0,0.4-0.1,0.8-0.2,1.2c-0.3,0.9-0.6,1.6-1,1.8c-0.4,0.3-1.2,0.4-2.4,0.4
		h-5.2c-1.7,11.4-2.5,19.3-2.5,23.5c0,1.6,0.2,2.9,0.6,3.8c0.4,0.9,1,1.3,2,1.3c1.2,0,2.4-0.6,3.7-1.7c0.5-0.4,0.9-0.7,1.2-0.7
		c0.4,0,0.9,0.4,1.5,1.2c0.3,0.3,0.5,0.7,0.7,1c0.2,0.3,0.3,0.6,0.3,0.8c0,0.3-0.3,0.8-0.9,1.3c-2.3,1.9-4.6,2.8-7.1,2.8
		c-2.5-0.1-4.2-0.9-5.2-2.6c-1-1.7-1.5-3.9-1.6-6.8c0-4.9,0.8-12.9,2.5-24h-3.8c-1,0-1.6-0.1-2-0.3c-0.4-0.2-0.6-0.5-0.6-1
		c0-0.3,0.1-0.8,0.2-1.3c0.2-0.9,0.5-1.4,0.9-1.6c0.4-0.2,1.2-0.3,2.5-0.3h3.5l2.3-13.6c0.1-1.1,0.3-1.8,0.5-2.1
		c0.2-0.3,0.7-0.5,1.4-0.7c1.3-0.2,2-0.3,2-0.3c0.5,0,0.8,0.1,0.9,0.4c0.1,0.3,0.1,0.7,0,1.5c-0.8,4.9-1.6,9.9-2.4,15h6.1
		C112.7,22.4,113.2,22.5,113.5,22.7z"/>
	<path class="st0" d="M118.1,49c0.7-5.8,1.5-12.8,2.5-20.9c1-9,2-17.4,3-24.9c0.1-1.1,0.3-1.8,0.5-2.1s0.7-0.6,1.3-0.8
		c0.8-0.2,1.4-0.3,1.9-0.3c0.5,0,0.8,0.1,0.9,0.4c0.1,0.3,0.2,0.7,0.1,1.4c-1.8,13.4-2.9,22.2-3.4,26.4c2.7-4.2,6.1-6.4,10-6.4
		c2.1,0,3.9,0.8,5.3,2.3c1.4,1.5,2.1,3.9,2.1,7.1c0,2.6-0.1,5.1-0.4,7.6s-0.6,6.1-1.2,10.7L140,57c-0.1,1.1-0.3,1.7-0.6,2.1
		c-0.3,0.3-0.8,0.6-1.5,0.8c-1.1,0.2-1.7,0.3-1.9,0.3c-0.5,0-0.8-0.1-1-0.4c-0.2-0.3-0.2-0.8-0.1-1.4l0.2-2
		c1.6-12.1,2.3-19.9,2.3-23.5c0-2.2-0.3-3.8-0.8-4.7c-0.6-1-1.5-1.5-2.8-1.5c-1.4,0-2.8,0.7-4.3,2.2c-1.4,1.5-2.7,3.4-3.8,5.8
		c-1.1,2.4-1.8,4.9-2.1,7.4L121.9,57c-0.1,1.1-0.3,1.7-0.6,2.1c-0.3,0.3-0.8,0.6-1.5,0.8c-1.1,0.2-1.7,0.3-1.9,0.3
		c-0.5,0-0.8-0.1-1-0.4c-0.2-0.3-0.2-0.8-0.1-1.4C117,57.9,117.4,54.8,118.1,49z"/>
	<path class="st0" d="M196.6,57.9c0,0.5-0.1,0.9-0.3,1.1c-0.2,0.3-0.6,0.5-1.1,0.7c-1,0.4-1.7,0.6-2.1,0.6c-0.6,0-1-0.4-1.1-1.2
		l-3.5-21.3l-15,1.6l-7.7,18.2c-0.4,0.8-0.8,1.4-1.1,1.7c-0.4,0.3-0.8,0.5-1.4,0.5c-1,0-1.8-0.1-2.2-0.3c-0.5-0.2-0.7-0.5-0.7-0.9
		c0-0.3,0.1-0.7,0.2-1.1l21.7-51.2c0.4-0.9,0.7-1.5,0.9-1.8c0.2-0.3,0.6-0.6,1.2-0.8c1.1-0.4,1.9-0.6,2.2-0.6c0.5,0,0.8,0.3,0.9,1
		l4.8,28.5l0.4-0.1c0.4-0.1,1-0.1,1.6-0.1c0.6,0,1,0.1,1.3,0.4c0.3,0.3,0.5,0.8,0.6,1.6c0.1,0.7,0.2,1.1,0.2,1.3
		c0,0.4-0.2,0.8-0.7,1c-0.5,0.2-1.3,0.4-2.6,0.6l3.2,18.9C196.5,57,196.6,57.5,196.6,57.9z M185.5,19.6l-0.7-7l-9.2,21.8l12.1-1.3
		L185.5,19.6z"/>
	<path class="st0" d="M228.9,5.5c0,0.3-0.3,0.9-1,1.7c-0.7,0.8-1.3,1.2-1.7,1.2c-0.3,0-0.6-0.2-1-0.5c-0.1-0.1-0.4-0.4-0.8-0.9
		c-0.4-0.5-0.9-0.9-1.5-1.2c-0.6-0.3-1.2-0.5-1.9-0.5c-1.9,0-3.3,1-4.3,3.1c-1,2.1-1.9,5.4-2.6,9.9l-0.5,3.8h5.2c1,0,1.6,0.1,2,0.3
		c0.3,0.2,0.5,0.5,0.5,1c0,0.2-0.1,0.6-0.2,1.3c-0.2,0.8-0.5,1.3-1,1.5c-0.4,0.3-1.2,0.4-2.4,0.4H213L209.5,57
		c-0.1,1.1-0.3,1.8-0.5,2.1c-0.2,0.3-0.7,0.5-1.4,0.7c-1.3,0.2-2,0.3-2,0.3c-0.5,0-0.8-0.1-0.9-0.4c-0.1-0.3-0.1-0.7,0-1.5
		c0.4-3.2,0.9-8,1.7-14.3s1.4-12.1,2.1-17.4h-3.1c-1,0-1.6-0.1-2-0.3c-0.4-0.2-0.6-0.5-0.6-0.9c0-0.3,0.1-0.7,0.2-1.1
		c0.3-0.9,0.6-1.6,1-1.8c0.4-0.3,1.2-0.4,2.4-0.4h2.7l0.6-4.2c0.6-3.9,1.4-7.1,2.3-9.5c0.9-2.5,2.1-4.4,3.7-5.7
		c1.6-1.4,3.6-2.1,6.1-2.1c1.4,0,2.8,0.4,3.9,1.3c1.2,0.8,2.1,1.8,2.9,2.8C228.7,5,228.9,5.3,228.9,5.5z"/>
	<path class="st0" d="M226.9,57c-0.2,1.1-0.4,1.8-0.6,2.1c-0.2,0.3-0.7,0.5-1.4,0.7c-1.1,0.2-1.7,0.3-1.9,0.3
		c-0.4,0-0.7-0.1-0.8-0.4c-0.1-0.3-0.1-0.7,0-1.4c1-7.9,1.8-14.5,2.4-20c0.6-5.5,0.9-10,0.9-13.7c0-1.1,0.1-1.8,0.4-2.1
		c0.2-0.3,0.8-0.5,1.6-0.7c1.3-0.2,2-0.3,2.1-0.3c0.5,0,0.8,0.1,1,0.4c0.2,0.3,0.2,0.7,0.2,1.5l-0.3,4.7c2.8-4.2,6-6.4,9.7-6.4
		c0.7,0,1.2,0.1,1.4,0.3c0.3,0.2,0.4,0.6,0.4,1.3c0,0.5,0,0.9-0.1,1.3c-0.1,1-0.3,1.7-0.6,2c-0.3,0.3-0.9,0.5-1.7,0.6
		c-2.8,0.3-5.1,1.7-7,4c-1.9,2.3-3.1,6-3.7,11L226.9,57z"/>
	<path class="st0" d="M246.5,59.9c-0.8,0.1-1.2,0.2-1.4,0.2c-0.6,0-1-0.2-1.2-0.5c-0.2-0.3-0.3-0.9-0.3-1.8c0-3.8,1.2-14.8,3.5-33
		c0.1-1.1,0.3-1.8,0.5-2.1c0.2-0.3,0.7-0.6,1.3-0.8c0.8-0.2,1.5-0.3,2-0.3c0.4,0,0.7,0.1,0.9,0.4c0.2,0.3,0.2,0.7,0.1,1.3
		c-1.2,8.2-2.1,15.9-2.7,23c-0.3,3.1-0.5,6.9-0.7,11.5c-0.1,0.8-0.2,1.3-0.4,1.4C247.8,59.5,247.3,59.7,246.5,59.9z M251.6,8.2
		c-1.1,0-2.1,0.5-2.8,1.5c-0.8,1-1.1,2.3-1.1,3.9c0,0.9,0.2,1.7,0.6,2.2c0.4,0.5,1,0.8,1.8,0.8c1.1,0,2.1-0.5,2.8-1.6
		c0.8-1.1,1.1-2.4,1.1-4c0-0.9-0.2-1.6-0.6-2.1C253,8.5,252.4,8.2,251.6,8.2z"/>
	<path class="st0" d="M273,58.5c-1.8,1.3-3.9,1.9-6.4,1.9c-3.4-0.1-6-1.3-7.7-3.8c-1.7-2.5-2.6-5.7-2.6-9.7c0-7.1,1.2-13,3.7-17.8
		c2.5-4.8,6.1-7.2,11-7.2c1.7,0.1,3.2,0.6,4.6,1.5c1.3,0.9,2.4,2.3,3.1,4.1c0.2,0.4,0.3,0.9,0.3,1.3c0,0.6-0.4,1-1.1,1.3l-1.2,0.5
		c-0.4,0.2-0.7,0.3-1,0.3c-0.4,0-0.9-0.4-1.3-1.2c-0.5-1.1-1-1.8-1.6-2.3c-0.6-0.4-1.3-0.7-2.3-0.7c-2.4,0-4.3,1.1-5.8,3.3
		c-1.4,2.2-2.4,4.9-2.9,7.9c-0.5,3-0.8,5.8-0.8,8.4c0,6.2,2,9.3,6,9.3c1.3,0,2.5-0.4,3.5-1.3c1-0.8,1.9-1.9,2.5-3.1
		c0.4-0.8,0.9-1.2,1.4-1.2c0.3,0,0.6,0.1,1,0.3l1,0.6c0.7,0.5,1,1,1,1.4c0,0.3-0.1,0.7-0.3,1.1C276.2,55.5,274.8,57.2,273,58.5z"/>
	<path class="st0" d="M310.3,53.8c0.5,0.8,0.8,1.5,0.8,2.2c0,0.4-0.4,1-1.2,1.6c-0.8,0.6-1.7,1.2-2.8,1.7c-1.1,0.5-2.2,0.8-3.2,0.8
		c-1.3,0-2.3-0.6-2.9-1.9c-0.6-1.3-0.9-2.7-0.9-4.3c-1.3,2.1-2.7,3.7-4.1,4.8c-1.5,1.1-3.2,1.6-5.2,1.6c-2.6-0.1-4.6-1.4-6.2-3.9
		c-1.5-2.6-2.3-6.1-2.3-10.6c0.1-4.2,0.7-8.1,1.8-11.8c1.2-3.7,2.8-6.6,5-8.8c2.2-2.2,4.8-3.3,7.9-3.3c2.1,0,4.2,0.9,6.3,2.7v-0.3
		c0.1-1.1,0.3-1.8,0.5-2.1c0.2-0.3,0.7-0.5,1.4-0.7c1.3-0.2,2-0.3,2.1-0.3c0.5,0,0.9,0.1,1,0.4c0.2,0.3,0.2,0.8,0.1,1.4
		c-2.6,18.1-3.9,29.2-3.9,33.2c0.8-0.5,1.8-1.3,2.9-2.5c0.7-0.7,1.2-1.1,1.4-1.1C309.2,52.6,309.7,53,310.3,53.8z M302.6,29.1
		c-0.9-0.8-1.7-1.5-2.5-1.9c-0.8-0.4-1.8-0.6-2.9-0.6c-2.5,0-4.5,1.1-6,3.3c-1.5,2.2-2.6,4.7-3.2,7.6c-0.6,2.9-1,5.6-1,8
		c0,6.5,1.6,9.8,4.8,9.8c2.3,0,4.3-1.5,6-4.4c1.7-2.9,2.9-6.8,3.5-11.5C302.1,34.1,302.5,30.6,302.6,29.1z"/>
	<path class="st0" d="M317.2,38.4c0.6-5.5,0.9-10,0.9-13.7c0-1.1,0.1-1.8,0.4-2.1c0.2-0.3,0.8-0.5,1.6-0.7c1.3-0.2,2-0.3,2.1-0.3
		c0.5,0,0.8,0.1,1,0.4c0.2,0.3,0.2,0.7,0.2,1.5l-0.3,4.7c2.8-4.2,6-6.3,9.7-6.3c2.1,0,3.9,0.8,5.3,2.3c1.4,1.5,2.1,3.9,2.1,7.1
		c0,2.6-0.1,5.1-0.4,7.6c-0.2,2.5-0.6,6.1-1.2,10.7l-0.9,7.5c-0.1,1.1-0.3,1.7-0.6,2.1c-0.3,0.3-0.8,0.6-1.5,0.8
		c-1.1,0.2-1.7,0.3-1.9,0.3c-0.5,0-0.8-0.1-1-0.4c-0.2-0.3-0.2-0.8-0.1-1.4l0.2-2c1.6-12.1,2.3-19.9,2.3-23.5c0-2.2-0.3-3.8-0.8-4.7
		c-0.6-1-1.5-1.5-2.8-1.5c-1.4,0-2.8,0.7-4.3,2.2c-1.4,1.5-2.7,3.4-3.8,5.8c-1.1,2.4-1.8,4.9-2.1,7.4L319.6,57
		c-0.2,1.1-0.4,1.8-0.6,2.1c-0.2,0.3-0.7,0.5-1.4,0.7c-1.1,0.2-1.7,0.3-1.9,0.3c-0.4,0-0.7-0.1-0.8-0.4c-0.1-0.3-0.1-0.7,0-1.4
		C315.8,50.5,316.6,43.9,317.2,38.4z"/>
	<path class="st0" d="M390.1,53.8c0.5,0.8,0.8,1.5,0.8,2.2c0,0.4-0.4,1-1.2,1.6c-0.8,0.6-1.7,1.2-2.8,1.7c-1.1,0.5-2.2,0.8-3.2,0.8
		c-1.3,0-2.3-0.6-2.9-1.9c-0.6-1.3-0.9-2.7-0.9-4.3c-1.3,2.1-2.7,3.7-4.1,4.8c-1.5,1.1-3.2,1.6-5.2,1.6c-2.6-0.1-4.6-1.4-6.2-3.9
		c-1.5-2.6-2.3-6.1-2.3-10.6c0.1-4.2,0.7-8.1,1.8-11.8c1.2-3.7,2.8-6.6,5-8.8c2.2-2.2,4.8-3.3,7.9-3.3c2.1,0,4.2,0.9,6.3,2.7v-0.3
		c0.1-1.1,0.3-1.8,0.5-2.1c0.2-0.3,0.7-0.5,1.4-0.7c1.3-0.2,2-0.3,2.1-0.3c0.5,0,0.9,0.1,1,0.4c0.2,0.3,0.2,0.8,0.1,1.4
		c-2.6,18.1-3.9,29.2-3.9,33.2c0.8-0.5,1.8-1.3,2.9-2.5c0.7-0.7,1.2-1.1,1.4-1.1C389,52.6,389.5,53,390.1,53.8z M382.4,29.1
		c-0.9-0.8-1.7-1.5-2.5-1.9c-0.8-0.4-1.8-0.6-2.9-0.6c-2.5,0-4.5,1.1-6,3.3c-1.5,2.2-2.6,4.7-3.2,7.6c-0.6,2.9-1,5.6-1,8
		c0,6.5,1.6,9.8,4.8,9.8c2.3,0,4.3-1.5,6-4.4c1.7-2.9,2.9-6.8,3.5-11.5C381.9,34.1,382.3,30.6,382.4,29.1z"/>
	<path class="st0" d="M397,38.4c0.6-5.5,0.9-10,0.9-13.7c0-1.1,0.1-1.8,0.4-2.1c0.2-0.3,0.8-0.5,1.6-0.7c1.3-0.2,2-0.3,2.1-0.3
		c0.5,0,0.8,0.1,1,0.4c0.2,0.3,0.2,0.7,0.2,1.5l-0.3,4.7c2.8-4.2,6-6.3,9.7-6.3c2.1,0,3.9,0.8,5.3,2.3c1.4,1.5,2.1,3.9,2.1,7.1
		c0,2.6-0.1,5.1-0.4,7.6c-0.2,2.5-0.6,6.1-1.2,10.7l-0.9,7.5c-0.1,1.1-0.3,1.7-0.6,2.1c-0.3,0.3-0.8,0.6-1.5,0.8
		c-1.1,0.2-1.7,0.3-1.9,0.3c-0.5,0-0.8-0.1-1-0.4c-0.2-0.3-0.2-0.8-0.1-1.4l0.2-2c1.6-12.1,2.3-19.9,2.3-23.5c0-2.2-0.3-3.8-0.8-4.7
		c-0.6-1-1.5-1.5-2.8-1.5c-1.4,0-2.8,0.7-4.3,2.2c-1.4,1.5-2.7,3.4-3.8,5.8c-1.1,2.4-1.8,4.9-2.1,7.4L399.4,57
		c-0.2,1.1-0.4,1.8-0.6,2.1c-0.2,0.3-0.7,0.5-1.4,0.7c-1.1,0.2-1.7,0.3-1.9,0.3c-0.4,0-0.7-0.1-0.8-0.4c-0.1-0.3-0.1-0.7,0-1.4
		C395.6,50.5,396.4,43.9,397,38.4z"/>
	<path class="st0" d="M453.4,0c0.5,0,0.8,0.1,1,0.4s0.2,0.7,0.2,1.4c-1.8,13.2-3.1,22.9-3.9,29.2c-0.8,6.3-1.4,11.4-1.7,15.4
		c-0.4,5.1-0.6,8.9-0.6,11.5c0,0.8-0.1,1.3-0.4,1.4s-0.8,0.4-1.6,0.6c-0.6,0.1-1,0.2-1.2,0.2c-0.6,0-1.1-0.2-1.3-0.7
		c-0.2-0.4-0.3-1.3-0.2-2.4c0-1,0.1-2.3,0.2-3.8c-1,2.2-2.3,4-4,5.3c-1.6,1.3-3.5,1.9-5.6,1.9c-2.6-0.1-4.6-1.4-6.2-3.9
		c-1.5-2.6-2.3-6.1-2.3-10.6c0.1-4.2,0.6-8.1,1.8-11.8c1.1-3.7,2.8-6.6,5-8.8c2.2-2.2,4.8-3.3,7.9-3.3c2.2,0,4.4,0.7,6.5,2.1
		c1-7.7,1.8-14.6,2.5-20.8c0.1-1.1,0.3-1.8,0.5-2.1c0.2-0.3,0.7-0.6,1.3-0.8C452.1,0.1,452.8,0,453.4,0z M446.3,28.6
		c-1-0.7-1.9-1.2-2.8-1.5c-0.8-0.3-1.8-0.5-2.8-0.5c-2.5,0-4.5,1.1-6,3.3c-1.5,2.2-2.6,4.7-3.2,7.6c-0.6,2.9-1,5.6-1,8
		c0,6.5,1.7,9.8,5.1,9.8c2.2,0,4.2-1.6,6-4.8s2.9-7,3.4-11.4L446.3,28.6z"/>
	<path class="st0" d="M501.6,7.4c3,2.9,4.5,6.7,4.5,11.4c0,5.5-1.8,10-5.4,13.6c-3.6,3.5-9,5.3-16.1,5.4h-2.7L479.6,57
		c-0.1,1.1-0.2,1.7-0.5,2.1c-0.3,0.3-0.8,0.6-1.6,0.8c-0.8,0.2-1.4,0.3-1.9,0.3s-0.8-0.1-0.9-0.4c-0.1-0.3-0.1-0.7,0-1.4l5.4-50
		c-2.5,0.4-3.9,0.7-4.4,0.8c-0.2,0.1-0.4,0.1-0.6,0.1c-0.6,0-1-0.2-1.2-0.6c-0.2-0.4-0.3-1.2-0.3-2.2c0-1.2,0.6-1.9,1.7-2.1
		c2.4-0.5,4.6-0.9,6.6-1.1c2-0.2,4.4-0.3,7.2-0.3C494.4,3,498.6,4.5,501.6,7.4z M496.9,28.8c2.7-2.5,4-5.7,4-9.9
		c0-3.4-1-6.1-3.1-8.1c-2.1-2-4.9-3-8.4-3c-2.1,0-3.7,0-4.6,0.1l-2.7,24.6l2.3,0.1C490.1,32.5,494.2,31.2,496.9,28.8z"/>
	<path class="st0" d="M514.2,57c-0.2,1.1-0.4,1.8-0.6,2.1c-0.2,0.3-0.7,0.5-1.4,0.7c-1.1,0.2-1.7,0.3-1.9,0.3
		c-0.4,0-0.7-0.1-0.8-0.4c-0.1-0.3-0.1-0.7,0-1.4c1-7.9,1.8-14.5,2.4-20c0.6-5.5,0.9-10,0.9-13.7c0-1.1,0.1-1.8,0.4-2.1
		c0.2-0.3,0.8-0.5,1.6-0.7c1.3-0.2,2-0.3,2.1-0.3c0.5,0,0.8,0.1,1,0.4c0.2,0.3,0.2,0.7,0.2,1.5l-0.3,4.7c2.8-4.2,6-6.4,9.7-6.4
		c0.7,0,1.2,0.1,1.4,0.3c0.3,0.2,0.4,0.6,0.4,1.3c0,0.5,0,0.9-0.1,1.3c-0.1,1-0.3,1.7-0.6,2c-0.3,0.3-0.9,0.5-1.7,0.6
		c-2.8,0.3-5.1,1.7-7,4c-1.9,2.3-3.1,6-3.7,11L514.2,57z"/>
	<path class="st0" d="M550.9,25.6c1.6,2.5,2.5,5.5,2.5,9.1c0,4.7-0.6,9.1-1.7,12.9c-1.1,3.9-2.8,7-5.1,9.3c-2.3,2.3-5,3.5-8.3,3.5
		c-2.8-0.1-5-1.3-6.6-3.8c-1.6-2.5-2.5-5.5-2.5-9.1c0-4.7,0.6-9.1,1.7-12.9c1.1-3.9,2.8-7,5.1-9.3c2.3-2.3,5-3.5,8.3-3.5
		C547.1,21.8,549.3,23.1,550.9,25.6z M544.6,52.1c1.5-2.3,2.5-5,3.1-8c0.6-3,0.9-5.8,0.9-8.3c0-2.8-0.4-5-1.2-6.7
		c-0.8-1.6-2-2.5-3.6-2.5c-2.4,0-4.4,1.1-5.8,3.4c-1.5,2.3-2.5,4.9-3.1,7.9c-0.6,3-0.9,5.8-0.9,8.3c0,2.8,0.4,5,1.2,6.7
		c0.8,1.7,2,2.6,3.6,2.6C541.2,55.6,543.2,54.4,544.6,52.1z"/>
	<path class="st0" d="M572.6,58.4c-1.7,1.3-3.5,1.9-5.5,1.9c-2.4,0-4.4-0.8-5.9-2.4c-1.5-1.6-2.3-3.9-2.3-7.1c0-2.6,0.1-5.1,0.4-7.6
		c0.2-2.5,0.6-6.1,1.2-10.7l0.9-7.5c0.1-1.1,0.3-1.7,0.6-2.1c0.3-0.3,0.8-0.6,1.5-0.8c1.1-0.2,1.7-0.3,1.8-0.3c0.5,0,0.8,0.1,1,0.4
		c0.2,0.3,0.2,0.8,0.1,1.4l-0.2,1.9c-0.1,0.8-0.5,4.3-1.2,10.5c-0.7,6.2-1.1,10.6-1,13.4c0,3.9,1.3,5.9,4,5.9c2.6,0,4.7-1.4,6.4-4.1
		c1.7-2.8,2.8-6.5,3.4-11.3l1.8-14.9c0.1-1.1,0.2-1.7,0.5-2.1c0.3-0.3,0.8-0.6,1.5-0.8c1.1-0.2,1.7-0.3,1.9-0.3
		c0.4,0,0.7,0.1,0.8,0.4c0.1,0.3,0.1,0.7,0,1.4c0,0.6-0.2,2.7-0.6,6.1c-0.8,5.8-1.4,11.3-1.9,16.6c-0.2,2.7-0.4,6.8-0.6,12.1
		c-0.1,0.8-0.7,1.3-1.9,1.5c-0.6,0.1-1,0.2-1.2,0.2c-0.6,0-1.1-0.2-1.3-0.7c-0.2-0.4-0.3-1.3-0.2-2.4c0-1,0.1-2.3,0.2-3.8
		C575.7,55.4,574.3,57.1,572.6,58.4z"/>
	<path class="st0" d="M616.3,0c0.5,0,0.8,0.1,1,0.4s0.2,0.7,0.2,1.4c-1.8,13.2-3.1,22.9-3.9,29.2c-0.8,6.3-1.4,11.4-1.7,15.4
		c-0.4,5.1-0.6,8.9-0.6,11.5c0,0.8-0.1,1.3-0.4,1.4s-0.8,0.4-1.6,0.6c-0.6,0.1-1,0.2-1.2,0.2c-0.6,0-1.1-0.2-1.3-0.7
		c-0.2-0.4-0.3-1.3-0.2-2.4c0-1,0.1-2.3,0.2-3.8c-1,2.2-2.3,4-4,5.3c-1.6,1.3-3.5,1.9-5.6,1.9c-2.6-0.1-4.6-1.4-6.2-3.9
		c-1.5-2.6-2.3-6.1-2.3-10.6c0.1-4.2,0.6-8.1,1.8-11.8c1.1-3.7,2.8-6.6,5-8.8c2.2-2.2,4.8-3.3,7.9-3.3c2.2,0,4.4,0.7,6.5,2.1
		c1-7.7,1.8-14.6,2.5-20.8c0.1-1.1,0.3-1.8,0.5-2.1c0.2-0.3,0.7-0.6,1.3-0.8C615,0.1,615.7,0,616.3,0z M609.2,28.6
		c-1-0.7-1.9-1.2-2.8-1.5c-0.8-0.3-1.8-0.5-2.8-0.5c-2.5,0-4.5,1.1-6,3.3c-1.5,2.2-2.6,4.7-3.2,7.6c-0.6,2.9-1,5.6-1,8
		c0,6.5,1.7,9.8,5.1,9.8c2.2,0,4.2-1.6,6-4.8s2.9-7,3.4-11.4L609.2,28.6z"/>
</g>
</svg>
